<svg xmlns="http://www.w3.org/2000/svg" width="867" height="867" viewBox="0 0 867 867">
  <defs>
    <style>
      .cls-1 {
        fill: #c93536;
      }

      .cls-1, .cls-2, .cls-3 {
        fill-rule: evenodd;
      }

      .cls-2 {
        fill: #3a76bd;
      }

      .cls-3 {
        fill: #189733;
      }
    </style>
  </defs>
  <path id="Top" class="cls-1" d="M162,383c-54.634-131.99,52.425-252.865,171-247,39.414,82.552,159.327,90.094,201-7,181.767,1.33,266.36,129.182,277,158s-23.03,41.4-35,25-65.359-107.478-209-76c43.89,27.044,89.958,88.042,59,165-98.856,4-166.9-40.345-217-90S229.564,256.48,162,383ZM342.678,89c-0.273,48.979,39.96,90.089,89.322,90,49.241-.089,89.272-41.142,89-90C520.73,40.525,480.874.088,432,0,383.006-.088,342.949,40.4,342.678,89Z"/>
  <path id="Left" class="cls-2" d="M507.262,725.35c-86.989,113.31-245.2,81.032-299.408-24.59,51.785-75.409-1.64-183.028-106.562-170.571C11.56,372.109,79.987,234.923,99.624,211.3s47.372-.757,39.15,17.811-60.4,110.342,38.682,219c1.476-51.532,31.268-121.927,113.4-133.6,52.894,83.61,48.512,164.714,30.557,232.927S363.91,730.1,507.262,725.35Zm-344.95-9.471c42.553-24.254,58.039-79.651,33.281-122.355-24.7-42.6-80.266-56.741-122.442-32.077C31.3,585.919,16.214,640.654,40.574,683.024,64.995,725.5,120.091,739.943,162.312,715.879Z"/>
  <path id="Right" class="cls-3" d="M629.349,256.015c141.624,18.68,192.775,171.834,128.408,271.59-91.2-7.143-157.687,92.934-94.437,177.571C571.284,861.927,418.265,871.26,387.988,866.065s-24.342-40.646-4.151-42.81,125.758-2.864,170.318-143c-45.366,24.488-121.226,33.886-172.394-31.4,45.961-87.613,118.391-124.37,186.442-142.928S705.137,377.787,629.349,256.015ZM793.622,559.487c-42.281-24.726-98-10.438-122.6,32.355-24.544,42.688-9,97.883,33.443,122.076,42.115,24,97.063,9.706,121.576-32.576C850.61,638.956,835.572,584.019,793.622,559.487Z"/>
</svg>
